<?xml version="1.0" encoding="UTF-8" standalone="no"?>
<!DOCTYPE svg PUBLIC "-//W3C//DTD SVG 1.1//EN" "http://www.w3.org/Graphics/SVG/1.1/DTD/svg11.dtd">
<svg width="100%" height="100%" viewBox="0 0 1553 1315" version="1.1" xmlns="http://www.w3.org/2000/svg" xmlns:xlink="http://www.w3.org/1999/xlink" xml:space="preserve" xmlns:serif="http://www.serif.com/" style="fill-rule:evenodd;clip-rule:evenodd;stroke-linejoin:round;stroke-miterlimit:2;">
    <g transform="matrix(1,0,0,1,21495.7,-14348.2)">
        <g transform="matrix(1,0,0,1,-6464.36,2051.35)">
            <g transform="matrix(1,0,0,1,-15351.2,-3069.35)">
                <g transform="matrix(1,0,0,0.89,1.7053e-13,1826.1)">
                    <g transform="matrix(600,0,0,600,1882.87,16600.9)">
                    </g>
                    <text x="275.467px" y="16600.9px" style="font-family:'Geist-Bold', 'Geist';font-weight:700;font-size:600px;">M<tspan x="790.867px 1101.67px 1344.07px 1557.07px 1695.07px " y="16600.9px 16600.9px 16600.9px 16600.9px 16600.9px ">ytril</tspan></text>
                </g>
            </g>
            <g transform="matrix(1,0,0,1,-6565.05,7566.03)">
                <g>
                    <g transform="matrix(5.16565,0,0,5.1735,10003.5,-69211.6)">
                        <path d="M-3412.87,14377.3C-3412.87,14377.3 -3413.5,14377.1 -3414.27,14377.3C-3414.85,14377.5 -3415.39,14378 -3415.39,14378L-3439.06,14402.5C-3439.06,14402.5 -3439.33,14402.9 -3439.43,14403.1C-3439.52,14403.2 -3439.63,14403.5 -3439.63,14403.5L-3450.8,14436.2C-3450.8,14436.2 -3451.33,14437.5 -3450.39,14438.8C-3449.44,14440.1 -3447.75,14439.9 -3447.75,14439.9L-3392.77,14440C-3392.77,14440 -3391.8,14440.1 -3391.18,14439.7C-3390.39,14439.3 -3390.06,14438.7 -3390.06,14438.7L-3362.56,14390.2C-3362.56,14390.2 -3361.83,14389.2 -3362.59,14387.5C-3363.15,14386.3 -3364.6,14386.1 -3364.6,14386.1L-3412.87,14377.3Z" style="fill:rgb(35,41,46);"/>
                    </g>
                    <g transform="matrix(4.70803,0,0,4.70803,8382.59,-62517.5)">
                        <path d="M-3436.78,14405.8C-3436.78,14405.8 -3436.18,14404.4 -3436.38,14403.3C-3436.57,14402.2 -3437.76,14401.2 -3437.76,14401.2L-3455.01,14383.3C-3455.01,14383.3 -3455.89,14382.2 -3456.87,14381.8C-3457.71,14381.4 -3459.41,14381.7 -3459.41,14381.7L-3482.36,14383C-3482.36,14383 -3483.99,14383 -3484.9,14384.8C-3485.64,14386.3 -3484.68,14387.8 -3484.68,14387.8L-3454.75,14440.9C-3454.75,14440.9 -3453.81,14443.1 -3451.68,14443C-3449.52,14442.9 -3448.87,14441.1 -3448.87,14441.1L-3436.78,14405.8Z" style="fill:rgb(35,41,46);"/>
                    </g>
                    <g transform="matrix(4.70803,0,0,4.70803,8372.4,-62574.2)">
                        <path d="M-3458.57,14387.8C-3458.57,14387.8 -3457.18,14387.9 -3456.21,14387.2C-3455.36,14386.6 -3454.74,14385.2 -3454.74,14385.2L-3428.66,14335.2C-3428.66,14335.2 -3428.15,14334.2 -3428.12,14333.7C-3428.07,14333.1 -3428.35,14331.9 -3428.35,14331.9L-3433.77,14303.7C-3433.77,14303.7 -3434.07,14301.3 -3436.72,14301.1C-3439.1,14300.9 -3439.99,14303.4 -3439.99,14303.4L-3484.32,14384.4C-3484.32,14384.4 -3485.43,14385.9 -3484.22,14387.8C-3483.26,14389.2 -3481.66,14389.1 -3481.66,14389.1L-3458.57,14387.8Z" style="fill:rgb(35,41,46);"/>
                    </g>
                    <g transform="matrix(4.70803,0,0,4.70803,8429.15,-62597.7)">
                        <path d="M-3435.79,14300.9L-3399.09,14311C-3399.09,14311 -3397.45,14311.6 -3397.2,14313.4C-3396.92,14315.4 -3398.45,14316.4 -3398.45,14316.4L-3428.67,14336.2C-3428.67,14336.2 -3430.63,14337.7 -3432.32,14336.8C-3434.03,14336 -3434.24,14333.9 -3434.24,14333.9L-3439.84,14304.5C-3439.84,14304.5 -3440.15,14302.9 -3439.07,14301.7C-3437.72,14300.3 -3435.79,14300.9 -3435.79,14300.9Z" style="fill:rgb(35,41,46);"/>
                    </g>
                    <g transform="matrix(4.70803,0,0,4.70803,8468.19,-62557.1)">
                        <path d="M-3402.05,14311.4L-3432.54,14331.3C-3432.54,14331.3 -3433.41,14331.6 -3433.89,14332.8C-3434.32,14333.8 -3434.09,14334.8 -3434.09,14334.8L-3416.82,14377.5C-3416.82,14377.5 -3416.48,14378.8 -3415.53,14379.6C-3414.7,14380.2 -3412.96,14380.4 -3412.96,14380.4L-3363.6,14389.5C-3363.6,14389.5 -3361.55,14390 -3360.36,14388.3C-3359.13,14386.6 -3360.14,14384.9 -3360.14,14384.9L-3397.65,14312.2C-3397.65,14312.2 -3398.32,14311.1 -3399.66,14310.9C-3401.08,14310.6 -3402.05,14311.4 -3402.05,14311.4Z" style="fill:rgb(35,41,46);"/>
                    </g>
                </g>
                <g transform="matrix(4.50657,0,0,4.43155,7724.81,-58575)">
                    <path d="M-3433.96,14331.9C-3433.96,14331.9 -3433.01,14330.2 -3431.27,14330.3C-3429.38,14330.3 -3428.48,14331.9 -3428.48,14331.9L-3411.28,14374.5C-3411.28,14374.5 -3410.48,14375.9 -3410.48,14377.2C-3410.49,14378.3 -3411.33,14379.2 -3411.33,14379.2L-3436.99,14405.6C-3436.99,14405.6 -3437.91,14406.9 -3439.51,14406.9C-3441.17,14406.9 -3442.03,14405.7 -3442.03,14405.7L-3459.93,14387.2C-3459.93,14387.2 -3461.05,14386.3 -3461.03,14384.7C-3461.02,14383.7 -3459.91,14381.9 -3459.91,14381.9L-3433.96,14331.9Z" style="fill:rgb(254,166,32);"/>
                </g>
                <g transform="matrix(1,0,0,1,474.634,-726.724)">
                    <path d="M-8312.07,5895.3L-8214.78,5711.79L-8153.88,5860.27L-8250.74,5958.03L-8312.07,5895.3Z" style="fill:rgb(255,216,95);"/>
                </g>
                <g transform="matrix(1,0,0,1,808.551,-893.149)">
                    <path d="M-8537.87,5662.03L-8520.87,5751.64L-8429.69,5692.17L-8537.87,5662.03Z" style="fill:rgb(21,23,24);"/>
                    <path d="M-8472.68,5827.7L-8355.69,5750.95L-8203.95,6044.1L-8399.39,6009.35L-8472.68,5827.7Z" style="fill:rgb(21,23,24);"/>
                    <g transform="matrix(1,0,0,1,-75.2999,342.733)">
                        <path d="M-8469.75,5869.74L-8355.69,5750.95L-8138.43,5791.25L-8264.15,6013.83L-8517.87,6012.3L-8469.75,5869.74Z" style="fill:rgb(21,23,24);"/>
                    </g>
                    <g transform="matrix(1,0,0,1,-499.932,402.803)">
                        <path d="M-8291.56,5718.56L-8212.77,5713.79L-8138.43,5791.25L-8180.99,5915.69L-8291.56,5718.56Z" style="fill:rgb(21,23,24);"/>
                    </g>
                    <g transform="matrix(1,0,0,1,-410.791,1.26865)">
                        <path d="M-8387.39,6028.65L-8214.15,5712.69L-8197.61,5798.41L-8316.97,6024.69L-8387.39,6028.65Z" style="fill:rgb(21,23,24);"/>
                    </g>
                </g>
            </g>
        </g>
    </g>
</svg>
